<svg width="40" height="40" viewBox="0 0 40 40" fill="none" xmlns="http://www.w3.org/2000/svg">
<rect x="0.5" y="0.5" width="39" height="39" rx="7.5" fill="#EFF4FF"/>
<rect x="0.5" y="0.5" width="39" height="39" rx="7.5" stroke="#D1E0FF"/>
<g clip-path="url(#clip0_906_1943)">
<path fill-rule="evenodd" clip-rule="evenodd" d="M13.5409 21.1116H15.355L17.2299 21.1098C17.7227 21.108 17.7298 21.0866 17.7655 20.6224C18.037 17.1083 19.8404 14.6942 23.0544 13.3015C23.9102 12.9494 24.8237 12.7587 25.7489 12.739C26.0292 12.7283 26.1239 12.6051 26.1239 12.3265C26.1155 11.0266 26.1155 9.72197 26.1239 8.41255C26.1274 8.11792 26.0399 7.98222 25.7292 8.00186C25.6221 8.00829 25.515 8.01327 25.4078 8.01825C25.1579 8.02988 24.9079 8.0415 24.6579 8.0715C21.0135 8.49647 18.0548 10.1642 15.7818 13.0229C14.0629 15.1736 13.0886 17.8241 13.0052 20.5759C12.9838 21.1116 13.0052 21.1116 13.5409 21.1116ZM13.5409 32H15.355L17.2352 31.9983C17.728 31.9965 17.7352 31.975 17.7709 31.5108C18.0423 27.995 19.8457 25.5809 23.0598 24.1899C23.9152 23.8368 24.829 23.646 25.7542 23.6275C26.0346 23.615 26.1292 23.4935 26.1292 23.2132C26.1209 21.9145 26.1209 20.6104 26.1292 19.301C26.1328 19.0064 26.0453 18.8707 25.7292 18.8885C25.6102 18.8963 25.4912 18.902 25.3721 18.9078C25.134 18.9193 24.896 18.9308 24.6579 18.9582C21.0135 19.3849 18.0548 21.0526 15.7818 23.9096C14.0611 26.0633 13.0867 28.7178 13.0052 31.4733C12.9838 32 13.0052 32 13.5409 32Z" fill="#0040C1"/>
</g>
<defs>
<clipPath id="clip0_906_1943">
<rect width="24" height="24" fill="white" transform="translate(8 8)"/>
</clipPath>
</defs>
</svg>
