<svg width="105" height="32" viewBox="0 0 105 32" fill="none" xmlns="http://www.w3.org/2000/svg">
<g id="Logo" clip-path="url(#clip0_145_44023)">
<path id="Vector" d="M92.2527 31.9453C88.2411 31.7524 84.7175 29.7502 82.4724 25.5314C80.4345 21.6984 80.9725 16.5631 83.7723 13.1514C86.4055 9.93261 89.7981 8.54938 93.8025 8.80888C98.7855 9.13028 103.088 12.8943 104.133 17.9439C105.028 22.2984 103.747 25.9933 100.578 28.9431C98.3736 30.9929 95.7381 31.9167 92.2527 31.9453ZM98.7403 20.3533C98.7252 19.1856 98.3651 18.0485 97.7053 17.0851C97.0455 16.1217 96.1154 15.3749 95.0321 14.9389C93.9488 14.5029 92.7608 14.3971 91.6175 14.6347C90.4742 14.8724 89.4268 15.443 88.607 16.2746C87.7873 17.1062 87.2319 18.1618 87.0107 19.3084C86.7895 20.455 86.9124 21.6414 87.364 22.7182C87.8156 23.7951 88.5756 24.7144 89.5485 25.3603C90.5213 26.0061 91.6635 26.3498 92.8312 26.3481C93.6146 26.3488 94.3904 26.1936 95.1132 25.8915C95.8361 25.5894 96.4916 25.1465 97.0416 24.5886C97.5916 24.0306 98.025 23.3688 98.3166 22.6416C98.6083 21.9145 98.7523 21.1366 98.7403 20.3533Z" fill="#0040C1"/>
<path id="Vector_2" d="M54.0436 25.6624C54.0436 27.5813 54.0436 29.5002 54.0436 31.4191C54.0436 31.8071 53.946 31.95 53.5365 31.9452C51.7557 31.9262 49.9741 31.9262 48.1917 31.9452C47.7846 31.9452 47.6798 31.8071 47.6822 31.4191C47.6941 27.7622 47.7036 24.103 47.6822 20.4437C47.7093 19.0225 47.2786 17.6302 46.4537 16.4726C44.311 13.5418 39.7066 13.7847 37.8686 16.9225C37.2844 17.9005 36.9713 19.0165 36.9616 20.1556C36.9449 23.8554 36.9497 27.5551 36.9473 31.2548C36.9473 31.9381 36.9473 31.9381 36.2688 31.9381C34.5284 31.9381 32.7881 31.9381 31.0501 31.9381C30.662 31.9381 30.5478 31.8071 30.5501 31.4381C30.5501 27.7789 30.4978 24.1196 30.574 20.4627C30.6549 16.5535 32.1238 13.2561 35.3141 10.873C37.4211 9.29929 39.8376 8.63506 42.4564 8.66601C44.9895 8.69696 47.3084 9.38024 49.3416 10.9063C51.8819 12.8109 53.3365 15.3869 53.8651 18.501C53.9918 19.288 54.0491 20.0847 54.0365 20.8818C54.0294 22.4864 54.0436 24.0744 54.0436 25.6624Z" fill="#0040C1"/>
<path id="Vector_3" d="M67.614 23.1864L69.1472 19.6866C70.6963 16.152 72.2454 12.6157 73.7945 9.07789C73.8313 8.95719 73.9089 8.85301 74.014 8.78311C74.119 8.71321 74.2451 8.68193 74.3706 8.69458C76.4443 8.69458 78.5156 8.69458 80.5892 8.69458C81.0178 8.69458 81.0439 8.73982 80.863 9.12789C78.6917 13.7847 76.5189 18.4415 74.3444 23.0983C73.035 25.9028 71.7272 28.7074 70.4209 31.5119C70.3804 31.6454 70.2949 31.7607 70.1791 31.8384C70.0632 31.916 69.9241 31.9513 69.7853 31.9381C68.3235 31.9222 66.8609 31.9222 65.3975 31.9381C65.2723 31.9511 65.1464 31.9215 65.0402 31.8541C64.9339 31.7867 64.8535 31.6854 64.8118 31.5667C62.2009 25.9544 59.582 20.3453 56.9553 14.7394C56.0839 12.8728 55.2109 11.0071 54.3364 9.14217C54.1388 8.71839 54.1507 8.69458 54.6173 8.69458C56.6767 8.69458 58.7361 8.69458 60.7955 8.69458C60.9348 8.68132 61.0743 8.71778 61.1894 8.79752C61.3044 8.87726 61.3875 8.99513 61.424 9.13027C63.408 13.6696 65.3959 18.2074 67.3878 22.7435C67.4497 22.8673 67.5116 22.9864 67.614 23.1864Z" fill="#0040C1"/>
<path id="Vector_4" d="M21.0365 20.5985V10.0754C21.0365 9.34216 21.0365 9.34216 21.7888 9.34216C23.5006 9.34216 25.2124 9.34216 26.9265 9.34216C27.3027 9.34216 27.4336 9.45406 27.4336 9.83498C27.4336 17.044 27.4336 24.2522 27.4336 31.4596C27.4336 31.8405 27.3027 31.9571 26.9265 31.9524C25.1433 31.9357 23.3554 31.9524 21.5817 31.9524C21.046 31.9524 21.0389 31.9524 21.0365 31.3858V20.5985Z" fill="#0040C1"/>
<path id="Vector_5" d="M24.2553 3.58655e-06C24.8836 0.000947071 25.4974 0.188195 26.0192 0.538063C26.541 0.88793 26.9473 1.3847 27.1868 1.96552C27.4262 2.54635 27.488 3.18515 27.3644 3.8011C27.2407 4.41705 26.9371 4.9825 26.4921 5.4259C26.047 5.8693 25.4804 6.17074 24.864 6.2921C24.2476 6.41345 23.609 6.34926 23.0291 6.10764C22.4492 5.86603 21.9539 5.45784 21.606 4.93473C21.2581 4.41161 21.0732 3.79706 21.0746 3.16882C21.0765 2.32691 21.4126 1.52021 22.009 0.926009C22.6054 0.33181 23.4134 -0.00126077 24.2553 3.58655e-06Z" fill="#0040C1"/>
<path id="Vector_6" d="M3.13306 17.482H0.714189C-4.30234e-05 17.482 -0.0286123 17.482 -4.29987e-05 16.7678C0.111174 13.0986 1.4103 9.5647 3.70206 6.69713C6.73279 2.88551 10.6777 0.661865 15.5369 0.0952409C16.013 0.0381023 16.4892 0.0309599 16.9654 0.00239064C17.3796 -0.0237979 17.4963 0.157141 17.4915 0.549969C17.4804 2.29587 17.4804 4.03542 17.4915 5.76863C17.4915 6.14003 17.3653 6.3043 16.9915 6.31859C15.758 6.34478 14.54 6.59904 13.399 7.06853C9.11356 8.92554 6.70898 12.1443 6.3471 16.8297C6.29949 17.4487 6.28996 17.4773 5.63287 17.4797L3.13306 17.482Z" fill="#0040C1"/>
<path id="Vector_7" d="M3.13306 32H0.714189C-4.30229e-05 32 -0.0286123 32 -4.29982e-05 31.2977C0.108617 27.6237 1.40785 24.0844 3.70206 21.2127C6.73279 17.4035 10.6777 15.1798 15.5369 14.6108C16.013 14.5561 16.4892 14.5489 16.9654 14.518C17.3868 14.4942 17.5034 14.6751 17.4986 15.0679C17.4875 16.8138 17.4875 18.5526 17.4986 20.2842C17.4986 20.658 17.3725 20.8199 16.9987 20.8366C15.765 20.8613 14.5467 21.1156 13.4061 21.5865C9.1207 23.4411 6.71612 26.6599 6.35424 31.3477C6.30663 31.9667 6.29711 31.9952 5.64001 31.9976L3.13306 32Z" fill="#0040C1"/>
</g>
<defs>
<clipPath id="clip0_145_44023">
<rect width="104.411" height="32" fill="white"/>
</clipPath>
</defs>
</svg>
